<svg xmlns="http://www.w3.org/2000/svg" xmlns:xlink="http://www.w3.org/1999/xlink" viewBox="0 0 172.7 73.1"><defs><path id="i" d="M-24-119h384c69 0 119 14 152 42L641 32c35 29 52 72 52 132v92c0 94-35 145-108 161l3 2c25 20 38 53 38 100v48c0 110-62 163-202 163H105c-14 0-25-3-32-9L-56 612c-9-8-14-19-14-37V-73c0-32 14-46 46-46z"/><path id="k" d="M419-119c14 0 25 4 31 10L580-1c9 8 14 19 14 37v119c0 32-14 46-46 46H347c-33 0-51 10-51 38v169h123c14 0 25 4 31 10l130 108c9 8 14 19 14 37v121c0 32-14 46-46 46H304c-87 0-151-17-192-52L-18 569c-42-36-63-89-63-163V125c0-145 80-244 256-244z"/><path id="f" d="M440-119c14 0 25 4 31 10L601-1c9 8 14 19 14 37v117c0 32-14 46-46 46H431l89 75c9 8 14 19 14 37v107c0 21-6 34-19 41l86 71c9 8 14 19 14 37v117c0 32-14 46-46 46H105c-14 0-25-3-32-9L-56 612c-9-8-14-19-14-37V-73c0-32 14-46 46-46z"/><path id="j" d="M490-119c14 0 25 4 31 10L651-1c9 8 14 19 14 37v309c0 32-14 46-46 46H464c-14 0-25-3-32-9L303 273c-3-3-6-6-8-9v144h130c14 0 25 4 31 10l130 108c9 8 14 19 14 37v121c0 32-14 46-46 46H304c-87 0-151-17-193-52L-18 569c-42-36-63-88-63-162V125c0-145 80-244 256-244z"/><path id="d" d="M136-119c14 0 25 4 31 10L297-1c9 8 14 19 14 37v648c0 32-14 46-46 46H106c-14 0-25-3-32-9L-55 612c-9-8-14-19-14-37V-73c0-32 14-46 46-46zm49 866zm0-747Z"/><path id="b" d="M131-119c14 0 25 4 31 10L292-1c9 8 14 19 14 37v48c76 3 128 22 161 50l130 108c44 37 60 91 60 155v128c0 121-55 205-246 205H105c-14 0-25-3-32-9L-56 612c-9-8-14-19-14-37V-73c0-32 14-46 46-46z"/><path id="a" d="M291-1c9 8 14 19 14 37v77h1c21 0 28-11 28-33V-73c0-32 14-46 46-46h155c14 0 25 4 31 10L696-1c9 8 14 19 14 37v212c0 79-41 132-104 150h1c27 23 38 60 38 109v46c0 104-48 177-207 177H105c-14 0-25-3-32-9L-56 612c-9-8-14-19-14-37V-73c0-32 14-46 46-46h154c14 0 25 4 31 10z"/><path id="l" d="M280-119c14 0 25 4 31 10L441-1c9 8 14 19 14 37v372h8c14 0 25 4 31 10l130 108c9 8 14 19 14 37v121c0 32-14 46-46 46H64c-14 0-25-3-32-9L-97 612c-9-8-14-19-14-37V454c0-32 14-46 46-46H72V-73c0-32 14-46 46-46z"/><path id="m" d="M244-134c132 0 211 23 258 63L632 37c45 38 60 90 60 152v495c0 32-14 46-46 46H494c-15 0-25-3-32-9L332 612l-1-1c-8-7-12-18-12-36V200c-13 6-16 16-16 28v456c0 32-14 46-46 46H100c-14 0-25-3-32-9L-61 612c-9-8-14-19-14-37V110c0-126 59-244 319-244z"/><path id="n" d="M489 0c133 0 194 52 194 164v92c0 98-40 147-126 155 40 17 59 52 59 108v48c0 105-61 153-192 153H105c-25 0-36-11-36-36V36c0-25 11-36 36-36ZM294 550h85c26 0 38-13 38-40v-28c0-27-12-40-38-40h-85zm0-262h130c26 0 38-12 38-39v-39c0-27-12-40-38-40H294Z"/><path id="r" d="M548 0c25 0 36 11 36 36v119c0 25-11 36-36 36H347c-42 0-61 15-61 48v238c0 34 19 50 61 50h201c25 0 36 11 36 36v121c0 25-11 36-36 36H304c-168 0-246-65-246-205V204C58 65 136 0 304 0Z"/><path id="g" d="M569 0c25 0 36 11 36 36v117c0 25-11 36-36 36H293v86h195c25 0 36 11 36 36v107c0 25-11 36-36 36H293v77h276c25 0 36 11 36 36v117c0 25-11 36-36 36H105c-25 0-36-11-36-36V36c0-25 11-36 36-36Z"/><path id="p" d="M619 0c25 0 36 11 36 36v309c0 25-11 36-36 36H464c-25 0-36-11-36-36V189h-97c-31 0-46 15-46 49v239c0 34 19 50 61 50h208c25 0 36 11 36 36v121c0 25-11 36-36 36H304c-168 0-246-65-246-204V204C58 65 136 0 304 0Z"/><path id="o" d="M265 0c25 0 36 11 36 36v648c0 25-11 36-36 36H106c-25 0-36-11-36-36V36c0-25 11-36 36-36Zm-80 747Zm0-747Z"/><path id="q" d="M260 0c25 0 36 11 36 36v166h115c182 0 236 79 236 195v128c0 116-54 195-236 195H105c-25 0-36-11-36-36V36c0-25 11-36 36-36Zm34 533h90c39 0 47-23 47-49v-53c0-26-8-49-47-49h-90z"/><path id="c" d="M295 540h75c35 0 44-20 44-47v-34c0-27-9-47-44-47h-75ZM259 0c25 0 36 11 36 36v196h140c28 0 38-13 38-43V36c0-25 11-36 36-36h155c25 0 36 11 36 36v212c0 84-48 137-121 145 42 18 56 58 56 114v46c0 99-47 167-197 167H105c-25 0-36-11-36-36V36c0-25 11-36 36-36Z"/><path id="s" d="M409 0c25 0 36 11 36 36v491h147c25 0 36 11 36 36v121c0 25-11 36-36 36H64c-25 0-36-11-36-36V563c0-25 11-36 36-36h147V36c0-25 11-36 36-36Z"/><path id="t" d="M682 189v495c0 25-11 36-36 36H494c-26 0-36-11-36-36V228c0-27-12-47-83-47-70 0-82 20-82 47v456c0 25-11 36-36 36H100c-25 0-36-11-36-36V189C64 67 125-15 373-15s309 82 309 204z"/><path id="u" d="M180 90h269c112 0 131 41 131 100v64c0 66-19 115-130 115 57 15 64 51 64 91v64c0 58-20 106-131 106H180Zm203 530c101 0 121-42 121-96v-64c0-48-11-91-121-91H190v251zm67-261c101 0 120-45 120-105v-64c0-55-21-90-121-90H190v259z"/><path id="y" d="M493 100H326c-120 0-150 32-150 119v280c0 89 32 121 150 121h167v10H326c-128 0-160-36-160-131V219c0-93 30-129 160-129h167z"/><path id="h" d="M515 100H188v259h246v10H188v251h327v10H178V90h337z"/><path id="w" d="M347 90h199v201h-10V100H347c-135 0-170 32-170 119v280c0 89 32 121 150 121h173v10H327c-128 0-160-36-160-131V219c0-93 33-129 180-129Z"/><path id="v" d="M181 630V90h10v540zm4 117zm0-747Z"/><path id="x" d="M397 287c126 0 150 55 150 133v74c0 78-24 136-150 136H181V90h10v197zm-206 10v323h206c118 0 140-54 140-126v-74c0-72-22-123-140-123Z"/><path id="e" d="M405 620c71 0 104-42 104-104v-70c0-74-21-115-104-115H187v289ZM187 90v232h283c76 0 111-32 111-98V90h10v134c0 70-39 107-121 107h-11c48 15 60 55 60 116v69c0 66-36 114-114 114H177V90Z"/><path id="z" d="M323 90h10v530h205v10H118v-10h205z"/><path id="A" d="M174 630V213c0-81 43-135 200-135s201 54 201 135v417h-10V213c0-75-42-125-191-125s-190 50-190 125v417z"/></defs><g transform="rotate(-3 -89.3 -65) scale(.26458)"><use xlink:href="#a" width="100%" height="100%" fill="#20252a" transform="matrix(.144 0 0 -.144 474.4 151.4)"/><use xlink:href="#b" width="100%" height="100%" fill="#20252a" transform="matrix(.144 0 0 -.144 -12.5 276.6)"/><use xlink:href="#c" width="100%" height="100%" fill="#fff" transform="matrix(.144 0 0 -.144 474.4 151.4)"/><use xlink:href="#d" width="100%" height="100%" fill="#20252a" transform="matrix(.144 0 0 -.144 85.7 276.6)"/><use xlink:href="#e" width="100%" height="100%" fill="#20252a" transform="matrix(.144 0 0 -.144 474.4 151.4)"/><use xlink:href="#f" width="100%" height="100%" fill="#20252a" transform="matrix(.144 0 0 -.144 386.2 150.4)"/><use xlink:href="#g" width="100%" height="100%" fill="#fff" transform="matrix(.144 0 0 -.144 386.2 150.4)"/><use xlink:href="#h" width="100%" height="100%" fill="#20252a" transform="matrix(.144 0 0 -.144 386.2 150.4)"/><use xlink:href="#i" width="100%" height="100%" fill="#20252a" transform="matrix(.144 0 0 -.144 39.8 150.2)"/><use xlink:href="#d" width="100%" height="100%" fill="#20252a" transform="matrix(.144 0 0 -.144 142.2 150)"/><use xlink:href="#j" width="100%" height="100%" fill="#20252a" transform="matrix(.144 0 0 -.144 195.6 150)"/><use xlink:href="#k" width="100%" height="100%" fill="#20252a" transform="matrix(.144 0 0 -.144 139.1 276.6)"/><use xlink:href="#l" width="100%" height="100%" fill="#20252a" transform="matrix(.144 0 0 -.144 229.6 276.6)"/><use xlink:href="#m" width="100%" height="100%" fill="#20252a" transform="matrix(.144 0 0 -.144 324 276.6)"/><use xlink:href="#a" width="100%" height="100%" fill="#20252a" transform="matrix(.144 0 0 -.144 431.5 276.6)"/><use xlink:href="#f" width="100%" height="100%" fill="#20252a" transform="matrix(.144 0 0 -.144 538.5 276.6)"/><use xlink:href="#n" width="100%" height="100%" fill="#fff" transform="matrix(.144 0 0 -.144 39.8 150.2)"/><use xlink:href="#o" width="100%" height="100%" fill="#fff" transform="matrix(.144 0 0 -.144 142.2 150)"/><use xlink:href="#j" width="100%" height="100%" fill="#20252a" transform="matrix(.144 0 0 -.144 289.5 149.8)"/><use xlink:href="#p" width="100%" height="100%" fill="#fff" transform="matrix(.144 0 0 -.144 195.6 150)"/><use xlink:href="#q" width="100%" height="100%" fill="#ff4243" transform="matrix(.144 0 0 -.144 -12.5 276.6)"/><use xlink:href="#o" width="100%" height="100%" fill="#ff4243" transform="matrix(.144 0 0 -.144 85.7 276.6)"/><use xlink:href="#r" width="100%" height="100%" fill="#ff4243" transform="matrix(.144 0 0 -.144 139.1 276.6)"/><use xlink:href="#s" width="100%" height="100%" fill="#ff4243" transform="matrix(.144 0 0 -.144 229.6 276.6)"/><use xlink:href="#t" width="100%" height="100%" fill="#ff4243" transform="matrix(.144 0 0 -.144 324 276.6)"/><use xlink:href="#c" width="100%" height="100%" fill="#ff4243" transform="matrix(.144 0 0 -.144 431.5 276.6)"/><use xlink:href="#g" width="100%" height="100%" fill="#ff4243" transform="matrix(.144 0 0 -.144 538.5 276.6)"/><use xlink:href="#u" width="100%" height="100%" fill="#20252a" transform="matrix(.144 0 0 -.144 39.8 150.2)"/><use xlink:href="#v" width="100%" height="100%" fill="#20252a" transform="matrix(.144 0 0 -.144 142.2 150)"/><use xlink:href="#p" width="100%" height="100%" fill="#fff" transform="matrix(.144 0 0 -.144 289.5 149.8)"/><use xlink:href="#w" width="100%" height="100%" fill="#20252a" transform="matrix(.144 0 0 -.144 195.6 150)"/><use xlink:href="#x" width="100%" height="100%" fill="#20252a" transform="matrix(.144 0 0 -.144 -12.5 276.6)"/><use xlink:href="#v" width="100%" height="100%" fill="#20252a" transform="matrix(.144 0 0 -.144 85.7 276.6)"/><use xlink:href="#y" width="100%" height="100%" fill="#20252a" transform="matrix(.144 0 0 -.144 139.1 276.6)"/><use xlink:href="#z" width="100%" height="100%" fill="#20252a" transform="matrix(.144 0 0 -.144 229.6 276.6)"/><use xlink:href="#A" width="100%" height="100%" fill="#20252a" transform="matrix(.144 0 0 -.144 324 276.6)"/><use xlink:href="#e" width="100%" height="100%" fill="#20252a" transform="matrix(.144 0 0 -.144 431.5 276.6)"/><use xlink:href="#h" width="100%" height="100%" fill="#20252a" transform="matrix(.144 0 0 -.144 538.5 276.6)"/><use xlink:href="#w" width="100%" height="100%" fill="#20252a" transform="matrix(.144 0 0 -.144 288.6 150.1)"/></g></svg>